<?xml version="1.0" encoding="UTF-8"?>
<!DOCTYPE svg PUBLIC "-//W3C//DTD SVG 1.0//EN" "http://www.w3.org/TR/2001/REC-SVG-20010904/DTD/svg10.dtd">
<!-- Creator: CorelDRAW 2018 (64-Bit) -->
<svg xmlns="http://www.w3.org/2000/svg" xml:space="preserve" width="3508px" height="2480px" version="1.0" style="shape-rendering:geometricPrecision; text-rendering:geometricPrecision; image-rendering:optimizeQuality; fill-rule:evenodd; clip-rule:evenodd"
viewBox="0 0 3508 2480.4"
 xmlns:xlink="http://www.w3.org/1999/xlink">
 <defs>
  <style type="text/css">
   <![CDATA[
    .fil0 {fill:black;fill-rule:nonzero}
   ]]>
  </style>
 </defs>
 <g id="Слой_x0020_1">
  <metadata id="CorelCorpID_0Corel-Layer"/>
  <path class="fil0" d="M2154.85 1707.33c11.66,-25.44 21.79,-51.57 27.34,-79.73 2.8,-14.17 4.25,-28.48 -0.96,-42.6 -4.83,-13.04 -16.57,-16.43 -29.63,-20.28 22.4,-15.32 92.37,-30.32 119.67,42.91 11.69,31.33 8.05,65.51 4.82,78.99 -1.7,7.09 -3.8,13.98 -6.2,20.71l-103.65 0c6.56,-14.34 12.99,-29.21 19.32,-45.49 9.67,-24.9 15.99,-53.94 11.4,-75.54 -3.26,-15.3 -14.1,-25.69 -30.56,-28.09 52.4,12.16 20.27,96.83 5.47,129.59 -2.95,6.53 -5.94,13.04 -8.97,19.53l-8.05 0zm128.52 -57.81c2.91,19.43 7.74,38.89 2.83,57.81l-13.07 0c3,-8.59 5.53,-17.45 7.46,-26.64 1.08,-5.1 2.23,-10.24 2.68,-15.44 0.46,-5.19 0.1,-10.48 0.1,-15.73zm-1358.91 -170.25c0.07,0.21 0.15,0.42 0.21,0.64 0.02,-0.14 0.04,-0.28 0.06,-0.41l-0.27 -0.23zm-11.49 93.35c-0.11,-0.03 -0.25,-0.01 -0.36,-0.05 0.03,0.07 0.08,0.14 0.13,0.2l0.23 -0.15zm1550.45 -446.57c-9.35,2.34 -20.52,-13.05 -23.08,-25.3 -1.88,-9 1.75,-15.01 8.8,-19.35 7.2,-4.42 13.2,-1.82 19.17,2.99 9.67,7.83 11.2,28.83 2.3,37.56 -2.3,2.26 -5.52,3.68 -7.19,4.1zm48.7 78.97c-3.76,4.56 -8.14,8.25 -12.52,8.16 -4.18,-0.07 -12.18,-8.5 -14.07,-18.26 -1.35,-6.98 -3.54,-14.6 3.02,-18.56 4.61,-2.78 11.46,-3.71 16.62,-2.37 7.7,2.01 10.74,23.84 6.95,31.03zm-443.86 256.78c8.65,-0.03 15.14,6.46 15.46,15.47 0.3,8.39 -13.54,19.75 -23.98,19.68 -7.29,-0.05 -11.61,-4.96 -11.47,-13.05 0.19,-11.96 9.34,-22.06 19.99,-22.1zm405.04 -84.75c0.53,-3.22 0.96,-6.8 1.71,-10.3 1.57,-7.34 5.21,-12.78 12.75,-12.85 7.53,-0.07 12.42,4.49 14.74,12.15 3.51,11.63 -7.03,27.49 -18.16,27.43 -6.9,-0.03 -11.51,-6.75 -11.04,-16.43zm6.9 -87.54c1.29,-7.37 5.12,-15.13 10.1,-19.41 8.16,-7.02 20.16,1.8 20.82,14.09 0.56,10.46 -4.85,19.16 -14.02,22.56 -9.33,3.44 -19.36,-3.3 -16.9,-17.24zm23.28 166c-0.53,2.5 -2.4,7.89 -5.5,11.93 -2.17,2.84 -6.68,5.07 -10.11,5.01 -6.97,-0.12 -13.78,-14.83 -12.92,-26.27 0.59,-8.01 6.65,-13.62 14.24,-13.19 8.19,0.48 17.09,9.28 14.29,22.52zm-1162.86 -695.06c-0.74,3.13 -1.3,11.74 -8.26,13.62 -7.76,2.74 -15.24,-8.25 -15.77,-9.04 -4.26,-6.4 -9.49,-12.88 -4.49,-21.24 3.57,-5.98 9.08,-8.59 15.77,-6.34 8.83,2.96 15.66,10.75 12.75,23zm14.7 76.68c0.2,-8.57 6.23,-14.88 13.89,-14.54 7.71,0.34 14.66,9.04 14.48,18.16 -0.18,9.4 -8.46,20.48 -15.3,20.47 -6.57,0 -13.35,-12.49 -13.07,-24.09zm-404.03 638.92c0.18,-12.35 3.67,-18.34 10.77,-18.43 7.24,-0.11 15.97,10.53 16.15,19.71 0.16,8.45 -7.12,17.1 -14.46,17.14 -9,0.05 -12.64,-5.34 -12.46,-18.42zm1543.68 55.33c0.02,-8.5 4.61,-13.74 11.99,-13.66 7.3,0.08 13.51,7.52 13.68,16.4 0.18,8.74 -7.11,19.42 -13.38,19.62 -6.33,0.19 -12.3,-10.68 -12.29,-22.36zm63.41 63.27c0,7.15 -1.54,13.48 -9.41,13.93 -6.88,0.38 -18.12,-12.42 -17.42,-20.05 0.64,-7.11 4.38,-12.04 11.79,-12.07 8.68,-0.04 15.07,7.7 15.04,18.19zm-1607.39 -49.26c4.5,12.06 -6.06,20.96 -13.16,21.18 -6.22,0.18 -12.51,-5.65 -12.53,-11.64 -0.02,-7.32 11.12,-22.05 16.01,-19.81 4.61,2.13 8.63,7.44 9.68,10.27zm-219.62 -26.88c3.43,15.71 13.66,41.36 24.52,53.64 0.61,0.69 3.75,16.52 16.31,16.95 3.36,0.1 3.74,3.01 3.1,5.84 -1.59,7.18 6.27,25.79 26.11,23.99 5.18,-0.47 1.54,9.51 14.84,14.77 4.59,1.82 15.92,-0.19 24.45,-0.13 1.76,0.02 24.1,14.14 41.55,-9.38 4.41,-5.91 9.28,-4.33 15.19,-4.88 12.87,-1.17 23.59,-6.23 28.39,-29.29 0.88,-4.3 11.6,-9.73 23.62,-15.92 19.6,-10.11 12.16,-39.45 12.82,-47.28 0.1,-1.23 -0.66,-7.47 4.99,-12.2 30.94,-25.95 14.84,-58.37 14.37,-59.35 -6.92,-14.33 -6.08,-26.84 3.08,-39.63 6.93,-9.64 7.31,-21.84 1.86,-32.66 -7.92,-15.69 -5.9,-30.69 -0.45,-46.41 2.01,-5.8 2.58,-12.67 2.12,-18.91 -0.9,-12.06 -9.69,-32.5 1.13,-36.88 15.8,-6.39 9.46,-26.26 17.85,-26.43 6.19,-0.13 17.96,-0.54 22.8,-6.68 12.45,-15.77 35.82,-6.15 48.2,2.73 12.84,9.21 39.34,33.41 55.47,52.6 -31.33,-42.83 -60.61,-71.3 -90.58,-83.58 -21.46,-8.77 -42.52,-8.6 -63.07,3.67 -27.37,16.35 -42.8,43.08 -53.4,73.34 -14.96,42.75 -18.46,87.22 -14.01,132.57 1.34,13.67 1.56,47.29 1.31,50.41 -2.38,31.54 -10.11,61.13 -27.24,87.25 -22.26,33.93 -54.78,40.12 -84.93,14.43 -15.41,-13.11 -28.74,-29.12 -42.8,-44.03 -6.7,-7.12 -13.2,-14.45 -19.9,-21.99 -2.25,-2.53 -10.28,-8.42 -7.7,3.44zm220.21 -8.13c-20.42,-1.41 -24.42,-21.05 -24.57,-26.85 -0.17,-6.29 -0.26,-21.45 0.95,-27.79 4.1,-21.2 17.37,-19.67 37,-15.81 16.53,3.26 32.85,73.64 -13.38,70.45zm23.84 -86.25c-8.19,7.56 -17.22,7.57 -26.48,3.88 -8.52,-3.4 -12.4,-11.16 -13.49,-20.5 -0.46,-3.88 -1.83,-17.84 1.54,-29.36 5.38,-18.45 18.5,-24.85 33.09,-13.93 19.97,14.94 22.48,44.08 5.34,59.91zm28.86 -196.29c3.14,-5.8 16.17,-9.67 24.15,-6.8 8.65,3.12 9.44,18.26 2.77,23.58 -22.08,17.61 -30.68,-9.85 -26.92,-16.78zm-21.27 10.58c15.03,-5.48 27.38,26.55 2.85,40.94 -2.97,1.73 -8.19,1.35 -11.03,1 -8.91,-1.11 -15.71,-11.19 -14.1,-20.59 1.47,-8.75 14.44,-18.49 22.28,-21.35zm-10.61 -1.54c-5.81,6.5 -13.51,15.39 -19.16,32.21 -4.45,-9.52 4.43,-26.73 19.16,-32.21zm0.79 53.78c16.81,15.26 16.86,44.37 -0.35,58.1 -8.34,6.66 -17.6,6.91 -26.54,2.52 -9.28,-4.55 -13.78,-12.36 -11.89,-24.65 1.71,-11.13 3.89,-19.9 8.7,-29.8 6.75,-13.84 19.21,-16.03 30.08,-6.17zm-29.77 -7.53c-9.04,14.77 -13.26,32.7 -16.61,54.98 -3.96,-26.04 3.55,-40.14 16.61,-54.98zm-7.19 80.97c-6.61,19.69 -9.44,38.12 -1.1,58.5 -14.51,-13.82 -13.7,-44 1.1,-58.5zm-18.25 107.23c1.31,-14.39 9.13,-28.51 9.87,-29.94 -3.22,12.46 -6.52,34.63 -4.41,52.93 -2.59,-4.95 -6.13,-15.53 -5.46,-22.99zm9.51 35.45c-7.84,5.04 -13.55,12.46 -15.34,16.93 -0.23,-12.32 4.58,-15.29 15.34,-16.93zm-20.54 37.39c5.41,-17 17.92,-29.94 26.47,-30.97 6.52,-0.78 16.98,2.87 19.44,5.94 9.12,11.36 8.87,27.82 2.92,40.78 -5.46,11.89 -16.06,17.7 -29.15,16.44 -3.94,-0.38 -8.31,-0.58 -11.69,-2.94 -2.51,-1.75 -6.12,-5.87 -6.8,-8.4 -1.65,-6.28 -2.9,-15.53 -1.19,-20.85zm-25.17 50.61c2.91,-12.6 20.37,-25.51 31.81,-19.91 7.38,3.61 7.02,16.18 4.99,24.02 -1.91,7.41 -10.57,18.5 -23.39,16.45 -12.13,-1.96 -15.63,-10.97 -13.41,-20.56zm-35.04 17.47c4.85,-6.77 18.3,-11.84 24.71,-8.09 9.08,5.3 8.98,14.96 3.91,21.71 -14.05,18.76 -28.06,6.68 -28.83,5.56 -5.54,-8.09 -3.61,-13.81 0.21,-19.18zm-35.24 -5.78c4.5,-2.44 18.09,-4.63 24.22,4.88 5.36,8.35 2.33,12.95 -3.37,17.34 -1.07,0.83 -22.87,9 -24.18,-11.3 -0.2,-3.13 -0.28,-8.97 3.33,-10.92zm-3.22 -0.38c-17.32,22.73 -31.99,-2.94 -30.27,-10.93 1.4,-6.46 4.41,-10.53 12,-9.89 9.21,0.78 23.49,13.98 18.27,20.82zm-49.95 -34.55c1.29,-6.21 5.12,-9.89 11.29,-7.51 5.63,2.17 12.12,7.41 13.04,13.13 1.52,9.34 -7.51,10.72 -13.88,9.55 -10.52,-1.93 -10.63,-14.37 -10.45,-15.17zm905.49 -741.34c9.89,0.04 17.22,4.1 17.26,11.69 0.04,7.48 -8.19,13.15 -15.2,13.07 -7.47,-0.1 -17.71,-9.35 -17.41,-16.31 0.24,-5.66 6.88,-8.48 15.35,-8.45zm-399.73 -111.12c-7.73,-0.2 -18.07,-7.89 -18.11,-13.47 -0.04,-5.59 8.28,-13.68 14.07,-13.68 6.58,0 14.35,9.99 13.64,18.01 -0.54,6.02 -3.58,9.56 -9.6,9.14zm1004.53 798.05c-0.3,-5.05 2.3,-7.91 8.03,-7.94 7.21,-0.03 14.26,6.79 14.09,14.56 -0.14,6.97 -3.11,11.98 -10.16,12.42 -6.18,0.38 -11.9,-8.43 -11.96,-19.04zm-542.92 -703.78c4.41,-0.06 14.42,5.2 12.53,12.51 -1.39,5.32 -7.72,11.07 -11.97,11.85 -4.95,0.92 -11.82,-2.39 -14.9,-7.44 -3.7,-6.08 9.64,-16.28 13.75,-16.85l0.59 -0.07zm934.58 834.12c-6.57,-0.25 -10.38,-3.88 -10.44,-11.38 -0.06,-7.51 4.28,-11.24 10.84,-11.71 6.59,-0.46 15.28,7.16 13.84,12.11 -2.44,8.43 -7.59,11.24 -14.24,10.98zm-1512.08 -916.01c-0.43,6.41 -11.79,14.88 -16.74,13.88 -4.08,-0.83 -8.97,-6.58 -7.23,-12.31 2.55,-8.36 13.34,-17.07 19.94,-9.72 1.83,2.03 3.63,5.01 4.03,8.15zm-99.15 241.88c-0.37,-8.17 7.71,-18.58 14.27,-15.73 3.3,1.43 8.5,5.23 8.57,10.35 0.11,8.36 -7.35,20.1 -14.9,16.27 -3.66,-1.85 -7.14,-5.71 -7.94,-10.89zm142.91 -255.8c-9.18,1.1 -13.1,-3.99 -12.88,-10.29 0.23,-7.11 4.95,-11.55 11.38,-11.11 6.08,0.4 12.68,3.37 12.58,11.16 -0.13,9.51 -7.9,9.1 -11.08,10.24zm-121.72 129.65c-0.08,-6.83 5.8,-15.03 10.9,-14.55 8.15,0.74 10,9.21 10.61,14.91 0.67,6.3 -3.45,14.82 -10.29,14.9 -6.59,0.08 -10.89,-7.95 -11.22,-15.26zm14.86 63.91c0.49,7.2 -2.74,13.08 -9.82,13.01 -6.94,-0.06 -10.49,-6.59 -10.34,-12.64 0.18,-6.47 2.2,-16.22 9.87,-16.47 8.81,-0.3 9.59,9.75 10.29,16.1zm1231.21 120.17c-8.04,2.14 -14.68,-2.88 -14.63,-12.18 0.03,-7.64 5.08,-10.22 10.98,-10 6.98,0.25 11.7,5.35 11.59,12.41 -0.05,3.3 -3.95,8.7 -7.94,9.77zm-11.08 554.52c-1.11,2.43 -1.83,3.64 -5.59,4.7 -4.48,1.27 -11.21,-8.15 -10.07,-14.68 0.53,-2.96 4.76,-7.3 7.28,-7.28 6.5,0.06 13.06,6.95 8.38,17.26zm-559.55 -758.89c-0.07,0.24 -0.17,0.41 -0.25,0.65 0.16,-0.13 0.3,-0.29 0.46,-0.41l-0.21 -0.24zm-769.8 440.13c-0.18,-8.89 6.22,-15.07 11.3,-13.34 2.95,1 7.07,5.72 7.07,8.71 -0.01,6 -3.33,13.64 -10.15,12.84 -3.3,-0.37 -8.07,-1.06 -8.22,-8.21zm-80.69 336.1c-0.21,-8.73 6.09,-14.92 11.44,-14.3 4.83,0.55 7.46,4.62 7.56,7.62 0.21,6.29 -3.98,14.87 -10.33,14.64 -3.25,-0.11 -8.51,-0.87 -8.67,-7.96zm141.15 -578.13c0.18,-7.72 8.2,-12.2 12.68,-12.17 3.34,0.03 3.26,5.07 3.34,8 0.24,7.03 -3,11.48 -8.25,12.39 -0.53,0.1 -7.92,-1.22 -7.77,-8.22zm903.84 682.33c-4.49,-11.82 -9.67,-23.42 -15.52,-34.83 -1.8,-3.5 -3.13,-6.38 -4.87,-9.13 -3.33,-1.19 -6.65,-1.62 -10.36,-2.26 -11.59,-1.97 -23.41,-4.33 -34.27,-9.3 -21.31,-9.76 -79.72,-40.07 -106.31,-86.32 25.64,39.82 87.93,77.84 116.82,87.09 47.48,15.22 95.85,12.42 139.47,-12.99 23.07,-13.42 43.88,-31.41 65.62,-47.48 28.07,-20.75 56.35,-40.87 90.39,-48.71 32.96,-7.59 60.73,4.89 81.57,30.52 13.17,16.19 23.38,36.65 26.94,59.24 2.61,16.62 7.02,35.87 6.07,58.48 15.43,-24.41 11.22,-45.67 16.3,-54.17 9.82,-16.49 -7.19,-23.64 -0.87,-32.93 15.44,-22.69 -2.37,-42.14 -9.73,-52.67 -2.28,-3.25 1.19,-34.94 -12.35,-47.78 -6.34,-6.56 -14.34,-11.59 -19.47,-17.99 -3.09,-3.86 -18.04,-44.19 -51.05,-40.6 -23.3,2.54 -28.37,-10.22 -40.09,-19.49 -15.73,-12.45 -31.24,-12.51 -47.37,-2.24 -7.56,4.8 -24.02,21.3 -31.82,25.5 -7.01,3.78 -18.93,-1.92 -30.7,0.69 15.39,-16.08 32.3,-36 41.37,-57.1 11.82,-27.55 22.74,-55.61 33.03,-83.89 13.54,-37.19 26.55,-74.51 46.37,-108.62 23.04,-39.66 56.38,-60.34 98.74,-64.39 14.98,-1.44 30.18,-0.23 45.28,-0.23 -8.9,-1.93 -17.82,-3.2 -26.77,-4.15 -42.82,-4.6 -80.63,6.27 -110,42.45 -16.99,20.93 -28.54,45.44 -38.23,70.93 -16.11,42.36 -29.48,86.11 -47.91,127.23 -34.28,76.48 -90.31,119.82 -171.11,120.16 -10.13,0.04 -20.26,-0.95 -30.39,-1.45 53.8,0.5 83.62,-8.16 100.08,-16.64 31.92,-16.42 52.18,-30.13 83.01,-76.97 19.84,-30.16 46.32,-105.84 51.16,-122.73 8.41,-29.26 34.4,-80.67 43.06,-93.52 14.7,-21.81 58.73,-65.09 121.89,-52.75 19.76,3.85 71.86,13.53 93.23,39.73 -9.5,-26.2 -22.78,-47.4 -39.87,-63.98 -50.56,-49.04 -111.06,-70.14 -177.88,-73.77 -20.44,-1.1 -36.51,7.46 -52.07,20.75 -41.67,35.61 -70.89,81.57 -94.4,132.01 -17.04,36.55 -32.56,73.96 -47.86,111.42 -8.97,21.98 -23.8,34.39 -45.08,39.53 -29.8,7.21 -59.02,0.82 -89.18,-2.75 0.16,-3.72 0.13,-6.92 0.48,-10.08 1.82,-16.28 4.65,-32.49 5.43,-48.82 2.37,-49.4 -4.26,-97.55 -20.98,-143.64 -6.5,-17.92 -30.29,-66.52 -29.53,-95.32 0.73,-27.78 20.64,-40.88 42.32,-49.36 34.47,-13.47 70.66,-15.21 106.78,-15.64 49.15,-0.58 98.4,1.44 146.9,-10.03 5.61,-1.33 11.26,-2.46 16.86,-3.85 5.13,-1.27 10.21,-2.77 15.32,-4.18 -38.61,6.38 -77.2,9.22 -116.15,8.84 -38.24,-0.37 -76.55,-0.04 -114.73,2.13 -26.59,1.51 -52.88,7.07 -76.69,21.56 -22.65,13.8 -35.44,38.17 -30.33,65.83 3.75,20.27 10.48,40.33 18.71,59.11 23.02,52.54 30.14,93.64 30.67,148.09 0.15,15.96 -1.24,25.57 -1.9,38.35 -1.45,27.76 -4.8,71.13 -2.43,107.61 -5.22,-35.46 -2.23,-109.6 -1.77,-121.86 1.77,-47.72 0.38,-78.72 -19.6,-143.3 -4.36,-14.08 -33.42,-71.81 -29.92,-107.39 2.49,-25.21 15.2,-56.52 84.92,-68.94 35.58,-6.34 71.29,-6.37 107.12,-6.53 34.61,-0.14 69.22,-0.52 103.82,-1.61 20.43,-0.64 48.43,-5.65 70.53,-13.07 32.66,-10.96 63.63,-37.51 75.66,-55.43 18.72,-27.89 26.82,-70.49 20.58,-104.01 -8.28,-44.43 -34.69,-73.18 -69.63,-92.87 -27.23,-15.35 -56.47,-26.55 -84.89,-39.41 -30.72,-13.91 -55.94,-33.87 -67.51,-69.6 -2.05,-6.34 -5.28,-17.9 -8.28,-18.2 -5.18,-0.52 -3.5,10 -3.26,14.88 2.06,42.27 23.67,70.89 55.32,92.64 7.11,4.88 14.17,9.87 17.4,19.63 4.76,12.34 16.06,24.65 29.34,22.95 7.58,-0.97 19.19,-5.32 21.09,5.84 1.55,9.12 -0.22,15.77 6.99,23.59 3.89,4.22 16.21,10.86 21.42,11.99 10.31,2.25 18.08,-1.91 13.28,14.41 -2.7,10 -3.1,20.9 -1.34,31.15 1.6,9.34 6.12,12.82 7.55,18.76 1.66,6.93 -11.37,7.14 -15.23,7.53 -9.44,0.99 -15.11,2.45 -23.25,8 -6.46,4.57 -10.38,10.09 -11.67,18.4 -0.81,6.72 -1.46,8 -7.73,4.04 -11.99,-7.58 -33.04,-5.74 -44.33,2.74 -5.96,4.47 -7.04,11.01 -9.11,12.59 -3.2,2.44 -7.24,-1.06 -9.23,-3.75 -6.64,-9 -8.06,-12.7 -19.85,-13.64 -12.82,-1.03 -31.15,3.46 -36.65,17.61 -1.38,3.54 -2.09,6.33 -6.84,5.56 -3.9,-0.63 -4.55,-4.2 -7.08,-7.69 -6.12,-8.44 -12.55,-10.14 -22.26,-10.01 -10.31,0.14 -23.66,3.33 -28.92,13.99 -2.39,4.86 -3.29,8.51 -9.87,8.21 -7.62,-0.35 -6.71,-6.95 -11.49,-13 -8.19,-10.38 -19.09,-8.35 -30.23,-6.77 -30.03,4.3 -22.87,21.34 -26.57,24.58 -3.09,2.72 -5.86,-4.02 -7.68,-6.48 -8.73,-11.78 -19.96,-10.57 -32.65,-8.21 -24.82,4.6 -22.08,23.81 -25.55,26.19 -3.19,2.18 -7.01,-2.69 -9.2,-4.97 -8.43,-8.83 -12.46,-8.82 -23.67,-5.56 -13.84,4.03 -25.2,10.37 -28.47,26.66 -2.62,13.92 -0.99,10.52 -14.33,5.72 -13.83,-4.96 -23.34,2.01 -32.17,13.25 -8.13,10.87 -7.37,12.57 -6.06,25.5 1.01,10.07 -2.8,9.56 -10.7,12.58 -9.61,3.67 -12.5,8.81 -14.57,19.35 -2.39,14.47 -0.11,27.77 8.93,39.01 6.73,8.35 4.07,10.35 -3.97,16.42 -7.35,5.56 -9.34,8.14 -8.82,18.33 0.67,8.63 5.65,27.82 11.08,34.1 7.91,9.16 18.85,3.91 19.67,13.51 0.28,3.36 -3.07,9.96 -4.18,14.01 -4.08,14.9 -1.69,40.29 13.04,47.6 9.96,4.95 10.28,2.58 4.99,15.34 -8.06,19.94 -9.89,42.16 9.71,54.79 1.64,1.06 1.2,0.31 -1.19,3.29 -10.3,12.92 -15.7,24.45 -15.46,41.86 0.11,7.75 -1.79,10.54 -7.16,15.86 -14.63,14.47 -5.39,-10.88 -3.73,-17.12 14.81,-55.82 7.27,-119.37 -24.16,-167 -11.58,-17.53 -25.38,-32.07 -41.17,-45.13 -31.67,-25.84 -64.68,-49.78 -96,-76.09 -27.37,-23 -52.06,-49.14 -68.92,-82.81 -16.29,-32.56 -12.87,-70.03 9.86,-94.67 13.54,-14.68 29.93,-25.09 48.35,-30.05 19.78,-5.31 40.14,-8.14 58.6,-11.74 -26.21,-4.94 -54.39,-12.37 -83.27,-9.44 -40.99,4.16 -73.7,24.36 -91.89,65.5 -14.07,31.83 -16.39,66.41 -12.04,101.15 5.82,46.38 28.06,83.63 59.25,114.37 25.51,25.14 53.03,47.87 79.35,72.04 30.07,27.62 58.57,55.77 62.13,102.95 1.87,24.78 -7.63,66.4 -36.23,87.34 -34.44,25.2 -58.93,22.75 -84.66,13.24 -41.46,-15.31 -68.99,-49.41 -92.36,-86.88 -37.78,-60.58 -54.45,-129.29 -60.06,-201.42 -3.46,-44.49 -5.36,-89.14 -9.52,-133.54 -2.62,-27.9 -5.8,-55.91 -15.89,-82.38 -13.04,-34.18 -44.29,-57.57 -75.92,-54.47 -28.92,2.81 -50.91,19.82 -68.39,43.68 -15.55,21.22 -19.93,47.34 -25.01,73.05 -7.73,39.29 -13.75,79.17 -24.19,117.63 -13.36,49.28 -42.08,86.1 -87.95,103.97 -19.29,7.5 -39.48,12.31 -59.18,18.61 -9.04,2.88 -31.81,11.3 -40.78,14.53 0.21,0.84 14.33,-3.23 14.53,-2.4 14.05,-2.29 28.09,-4.57 42.12,-6.86 46.14,-7.54 86.45,-27.17 117.07,-66.52 23.18,-29.78 37.81,-64.53 48.6,-101.24 9.62,-32.72 18.48,-65.69 27.51,-98.61 4.07,-14.87 13.58,-22.41 16.86,-24.09 12.07,-8.08 25.09,-13.29 35.35,-11.33 16.69,3.17 27.61,14.21 33.78,24.24 19.6,31.79 21.15,85.03 22.49,101.88 1.47,18.37 1.25,91.26 1.2,99.72 -0.18,38.28 2.68,98.57 9.64,133.86 10.81,54.79 22.79,93.86 37.28,122.55 27.63,54.73 59.6,82.64 83.58,97.87 5.01,3.19 40.28,23.48 72.64,10.25 -11.28,7.26 -27.8,8.43 -47.2,3.18 -23.07,-6.25 -43.12,-18.62 -60.97,-35.44 -3.68,-3.47 -34.83,-42.78 -41.5,-54.07 -28,-47.4 -40.78,-100.57 -49.88,-155.25 -9.79,-58.9 -7.42,-118.24 -7.6,-177.57 -0.11,-38.96 -0.93,-78.07 -10.52,-116.12 -3.96,-15.66 -9.42,-30.43 -21.3,-41.39 -11.04,-10.18 -23.19,-15.22 -37.78,-10.89 -1.68,0.5 -12.58,4.4 -18.88,9.09 4.09,-0.8 8.23,-1.42 12.26,-2.45 22.25,-5.7 36.76,1.57 45.59,24.03 7.86,20.03 15.32,76.18 16.6,108.04 2.79,69.43 -1.2,139.19 11.29,208.1 8.33,45.9 20.08,90.41 42.22,130.86 7.57,13.83 42.85,73.66 63.75,86.28 -35.47,-16.73 -61.37,-67.58 -79.6,-94.54 -31.92,-47.17 -63.21,-94.82 -105.02,-132.74 -47.29,-42.91 -99.83,-65.07 -162.29,-46.96 -18.34,5.32 -35.86,12.66 -51.88,24.03 20.83,-10.91 43.16,-14.67 65.83,-15.91 40.53,-2.23 78.88,6.3 114.06,29.11 38.63,25.07 66.62,61.47 91.43,101.1 21.39,34.18 41.53,69.32 63.61,102.98 21.05,32.09 47.43,57.06 85.61,62.45 3.14,0.45 6.07,2.46 9.1,3.75 -19.33,-1.72 -37.86,-5.42 -54.27,-16.89 -23.16,-16.19 -40.38,-38.55 -55.61,-62.74 -21.32,-33.87 -41.32,-68.73 -62.97,-102.34 -20.97,-32.51 -45.82,-61.26 -77.28,-82.43 -41.91,-28.2 -87.72,-33.14 -135.75,-27.73 -60.47,6.82 -104.34,63.49 -110.43,123.75 -3.58,35.52 -1.41,70.8 2.77,106.16 1.09,-3.7 1.81,-7.46 2.12,-11.25 3.37,-40.42 15.3,-77.28 38.68,-109.4 27.12,-37.3 68.71,-46.63 107.38,-25.32 22.43,12.34 40.31,30.2 56.44,50.31 34.79,43.35 61.48,92.5 86.21,143.01 18.51,37.82 38.8,74.26 70.39,101.47 5.98,5.15 12.5,10.24 18.81,15.5 -0.95,0.51 -2.45,1.95 -3.2,2.47 -48.74,33.53 -81.43,80.35 -99.51,139.56 -3.74,12.2 -6.82,24.51 -9.39,36.9l14.96 0c3.8,-15.13 8.41,-30.09 14,-44.81 28.72,-75.71 81.32,-122.14 151.74,-147.18 9.73,-3.46 19.91,-5.44 29.91,-8.02 1.09,-0.29 2.33,0.11 3.49,0.19 -41.78,10.74 -79.92,29.56 -113.64,58.7 -41.81,36.13 -64.91,84.65 -78.86,139.17l-0.49 1.95 86.18 0c2.14,-7.32 4.08,-13.53 5.41,-16.94 12.08,-31.22 39.65,-67.32 68.2,-82.8 9.33,-5.05 43.16,-21 87.08,-30.25 0.47,0.96 -0.33,4.47 -0.47,8.48 -11.11,3.07 -24.05,5.43 -35.15,8.56 -59.7,16.84 -99.69,54.67 -118.88,112.95l8.04 0c12.94,-36.55 38.17,-63.49 70.68,-83.05 22.18,-13.36 46.21,-21.03 71.04,-25.98 1.12,-0.22 2.31,-0.03 2.52,-0.03 0,76.77 -38.52,100.07 -43.68,109.06 0,0 198.58,0 356.45,0 0,0 -0.9,-76.94 -0.9,-76.94 23.99,22.95 42.94,48.42 56.98,76.94l11.79 0c-15.54,-30.36 -42.3,-61.83 -68.32,-90.16 -0.27,-4.07 1.22,-18.89 1.31,-19.37 1.38,-8.61 12.38,-63.45 60.34,-92.74 -27.54,20.2 -58.09,60.29 -58.78,102.72 21.11,18.38 55.5,65.42 66.22,84.15 2.13,3.71 5.3,8.84 8.86,15.4 121.44,0 41.87,0 108.08,0zm-694.85 -248.53c-15.86,-27.07 -30.73,-54.87 -44.74,-83.12 -15.38,-31.03 -32.34,-60.76 -52.96,-88.02 -1.49,-1.97 -30.69,-37.39 -34.57,-41.24 19.71,15.41 56.13,63.47 61.61,72.92 7.98,13.78 35.99,61.71 45.44,80.9 8,16.25 47.28,94.11 88.74,114.38 -2.39,1.45 -3.7,1.83 -6.39,3.62 -21.43,-14.87 -43.52,-36.25 -57.13,-59.44zm986.06 78.14c-26.89,-16.25 -55.5,-16.84 -84.69,-10.31 -32.56,7.27 -60.29,25.12 -85.34,47.93 -27.42,24.95 -59.96,43.72 -96.15,45.66 -39.37,2.1 -95.92,-21.08 -116.34,-77.09 9.97,23.13 68.85,102.26 157.18,61.68 25.56,-11.76 54.29,-37.53 77.81,-54.08 38.31,-26.95 79.95,-40.41 125.25,-27.69 38.66,10.85 48.79,35.85 52.9,49.56 -13.29,-29.12 -27.23,-33.61 -30.62,-35.66zm-342.12 -2.12c-8.08,2.06 -14.29,-2.17 -19.08,-8.49 -3.81,-5.02 -7.12,-10.62 -9.84,-16.41 -8.75,-18.64 -1.84,-30.84 17.35,-31.2 19.68,-0.36 34.89,20.29 29.2,39.67 -2.76,9.37 -9.22,14.29 -17.63,16.43zm35.92 47.1c9.11,4.88 19.52,6.9 29.37,10.18 -16.27,8.9 -50.68,-9.52 -54.86,-29.37 8.45,6.51 16.32,14.27 25.49,19.19zm104.12 -30.29c-8.61,5.82 -17.57,12.01 -27.17,14.95 -16.47,5.05 -29.32,-8.59 -25.72,-26.77 1.61,-8.16 6.6,-30.59 36.14,-36.37 11.6,-2.26 21.02,7.79 24.65,19.61 3.5,11.43 1.98,21.88 -7.9,28.58zm13.65 1.2c-3.23,26.24 -42.47,40.52 -62.09,25.16 25.63,2.9 47.19,-1.91 62.09,-25.16zm17.67 -8.8c16.19,-6.58 33.13,-11.81 43.98,-28.28 -2.67,18.41 -22.88,31.2 -43.98,28.28zm62.72 -40.29c19.15,0.48 40.35,-1.64 56.98,-6.85 -8.6,14.06 -40.4,20.24 -56.98,6.85zm184.73 135.74c-6.26,6.21 -9.87,6.21 -14.01,-2.05 -3.63,-7.23 -5.44,-17.4 -1.43,-21.07 13.88,-12.7 27.07,11.56 15.44,23.12zm0.94 -40.51c-9.72,16.09 -24.23,7.29 -31.18,-8.66 -2.05,-4.68 -3.51,-9.78 -4.57,-14.85 -2.83,-13.65 10.31,-19.74 22.93,-16.4 4.95,1.31 25.01,19.71 12.82,39.91zm-19.41 -88.05c4.53,5.21 6.52,13.92 6.43,25.56 -0.13,15.23 -15.28,19.51 -24.05,19.25 -8.72,-0.26 -25.41,-19.53 -22.84,-41.86 1.16,-10.17 16.66,-30.34 40.46,-2.95zm-71.52 -61.82c31.58,-0.25 36.39,20.53 38.45,35.72 2.51,18.5 -18.8,27.5 -34.98,18.12 -8.52,-4.94 -16.48,-12.41 -22.52,-20.59 -8.85,-11.98 10.89,-33.19 19.05,-33.25zm-4.52 62.18c7.12,5.04 17.59,6.95 25.65,10.62 -17.83,4.3 -45.31,-11.17 -47.31,-29.7 6.47,6.55 14.32,13.88 21.66,19.08zm-102.1 -54.81c5.29,-19.1 23.85,-34.12 42.31,-34.22 19.89,-0.1 34.75,15.43 34.4,35.98 -0.25,14.45 -6.09,23.65 -18.98,27.67 -14.92,4.64 -30.14,8.02 -45.21,0.57 -11.6,-5.74 -16.13,-16.97 -12.52,-30zm-47.96 -0.34c10.18,-3.47 22.22,0.33 24.38,1.36 18.83,8.98 26.8,33.08 11.15,47.08 -9.96,8.93 -22.42,15.93 -34.83,19.98 -16.55,5.4 -28.65,-5.83 -29.89,-24.29 -1.29,-19.31 12.05,-38.3 29.19,-44.13zm-90.25 39.96c19.68,-3.95 38.82,-11.05 58.2,-16.77 0.4,0.33 -2.26,17.4 -13.53,17.57 -24.65,0.37 -46.99,30.76 -48.44,39.57 -10.45,-21.27 -34.55,-24.15 -52.36,-24.54 -1.66,-3.73 -2.73,-5.91 -5.22,-9.12 16.9,-1.56 44.76,-3.37 61.35,-6.71zm-60.69 25.62c6.65,-4.01 16.34,-4.18 24.03,-3.24 16.86,2.06 34.76,15 30.83,35.14 -3.01,15.37 -13.83,24.95 -27.64,20.93 -11.06,-3.22 -22.2,-9.12 -31.23,-16.7 -11.69,-9.84 -9.2,-28.18 4.01,-36.13zm-21.4 -173.49c23.59,2.02 47.09,3.27 70.37,-4.33 17.55,-5.72 29.9,-17.35 37.49,-34.62 16.23,-36.94 31.6,-74.33 47.65,-111.36 16.78,-38.73 36.16,-75.69 64.37,-106.33 2.35,-2.56 39.13,-37.63 47.68,-40.2 -14.88,11.82 -47.52,45.13 -52.69,51.42 -25.09,30.46 -42.11,66.25 -57.77,102.92 -13.07,30.6 -25.62,61.48 -39.18,91.83 -14.67,32.85 -21.7,40.64 -47.92,51.35 -13.46,5.51 -63.2,9.76 -104.94,-0.52 -0.07,-1.47 -0.4,-3.65 -0.47,-5.13 10.97,1.78 24.64,4.04 35.41,4.97zm-47.6 153.53c7.29,22.53 19.28,37.8 37.75,47.48 -14.77,4.26 -40.39,-21.09 -37.75,-47.48zm-128.62 -350.8c-5.84,-22.66 -12.5,-45.98 -17.76,-68.69 -19.45,-85.32 5.43,-136.87 80.46,-169.9 39.06,-16.9 75.06,-18.39 116.32,-21.12 41.16,-2.72 82.47,-4.68 123.69,-7.21 55.75,-3.39 123.97,-4.86 170.47,-42.74 6.68,-5.45 12.39,-11.3 16.95,-18.93 15.34,-26.48 7.57,-56.45 -10.77,-78.48 -19.16,-22.99 -51.8,-46.29 -77.8,-59.27 -9.96,-4.93 -19.79,-8.91 -30.28,-12.28 41.54,10.08 111.45,52 126.66,97.51 1.36,4.08 2.19,7.73 2.87,11.98 3.2,23.64 -3.76,42.65 -19.28,58.33 -30.16,30.07 -72.11,38.81 -111.5,44.22 -57.04,7.82 -116.79,6.25 -174.41,9.89 -52.94,3.35 -119.76,11.03 -164.95,42.84 -3.2,2.26 -6.23,4.58 -9.28,7.06 -34.56,28.74 -44.95,64.06 -38.09,109.84 4.71,31.38 13.71,64.88 20.8,95.94 5.85,25.64 15.94,69.74 12.76,95.68 -4.01,29.48 -15.13,59.12 -35.38,79.9 -16.81,17.25 -27.51,36.09 -38.7,57.8 3.25,-12.5 18.94,-37.29 26.46,-47.19 9.87,-13 18.94,-20.81 27.53,-35.88 20.45,-35.89 20.99,-73.58 12.15,-113.64 -2.64,-11.96 -5.85,-23.81 -8.92,-35.66zm-180.21 -123.3c-19.22,-17.09 -49.29,-52.37 -59.42,-67.11 11.39,13.36 45.73,49.1 57.96,58.83 23.16,18.39 47.27,35.38 70.74,53.33 63.06,48.62 88.67,99.09 81.89,183.73 -3.29,41.01 -12.49,94.98 -31.09,130.95 11.28,-26.38 20.71,-76.51 24.23,-105.21 3.8,-30.96 5.86,-70.04 -3.53,-99.96 -14.84,-46.13 -35.58,-69.91 -63.61,-95.76 -9.28,-8.55 -61.88,-45.21 -77.17,-58.8zm222.73 -228.34c2.35,-7.81 11.04,-13.79 16.12,-6.29 5,7.39 -7.21,21.52 -14.68,11.59 -1.2,-1.59 -1.85,-3.11 -1.44,-5.3zm-896.47 833.37c-5.75,-0.21 -7.08,-6.95 -7.1,-8.07 -0.06,-3.71 3.89,-8.51 9.29,-7.98 1.29,0.13 5.65,1.66 5.98,5.54 0.44,5.36 -1.46,10.75 -8.17,10.51zm637.69 -778.88c-5.69,0.95 -9.81,-5.04 -9.94,-8.3 -0.2,-4.98 7.69,-9.13 12.01,-10.68 4.67,-1.67 6.04,5.3 5.72,6.9 -0.79,3.94 -2.04,11.13 -7.79,12.08zm756.52 159.36c1.57,-2.99 6.11,-5.18 8.26,-4.48 3.26,1.06 8.7,3.71 8.53,7.8 -0.12,2.81 -4.28,4.9 -6.21,4.72 -3.56,-0.31 -8.28,-0.81 -10.44,-4.11 -0.7,-1.07 -0.74,-2.79 -0.14,-3.93zm-731.48 -24.3c-22.79,-20.9 -42.59,-55.32 -50.65,-71.94 -4.01,-8.27 -3.1,-22.8 4.91,-28.78 7.68,-5.73 8.38,-20.69 8.86,-23.63 0.79,-4.8 20.54,-4.98 28.17,-16.79 1.89,-2.92 17.32,4.59 23.75,5.48 3.02,1.3 12.47,-0.01 14.72,-0.68 10.71,-3.19 22.91,-4.09 31.03,1.71 20.53,14.65 40.34,-0.23 48.12,-4.46 21.76,22.55 56.19,11.66 67.27,-4.97 0.25,-0.36 22.32,6.85 35.94,0.18 9.84,-5.43 13.75,-27.68 23.48,-28.9 9.68,-1.22 17.7,-4.5 22.05,-17.06 1.65,-4.73 2.23,-9.21 2.59,-14.33 1.03,-8.28 26.69,-15.2 14.29,-41.55l-0.68 -1.45c-0.9,-1.83 11.26,-22.4 -8.58,-33.36 4.27,-5.64 -0.39,-29.96 -18.41,-32.83 -14.48,-31.44 -64.51,-50.96 -60.7,-41.89 3.86,9.24 7.08,9.69 11.1,15.07 12.92,17.35 27.01,33.8 38.72,52.05 18.33,28.58 10.78,59.89 -16.71,77.12 -29.23,18.33 -60.87,21.76 -93.27,16.12 -31.76,-5.52 -63.24,-11.6 -95.61,-6.89 -26.97,3.93 -52.51,11.3 -73.47,31.4 0.01,-0.02 0.02,-0.04 0.03,-0.06 -14.44,10.94 -23.19,26.16 -24.89,44.8 -3.83,41.98 25.84,91.04 67.94,125.64zm248.27 -220.8c-0.89,-6.02 1.25,-16.5 5.64,-19.85 5.57,-4.26 13.36,-5.36 18.86,-0.25 4.65,4.34 1.77,15.24 -1.26,20.07 -4.36,6.97 -11.82,9.19 -18.31,6.24 -2.4,-1.09 -4.06,-3.1 -4.93,-6.21zm3.83 -43.34c0.1,-4.1 0.54,-11.8 7.19,-13.17 6.62,-1.09 12.79,2.76 14.55,11.44 2.19,10.77 -4.85,16.86 -12.39,17.15 -4.91,0.19 -8.8,-7.26 -9.28,-13.09l-0.07 -2.33zm-17.21 -39.73c-5.39,-0.54 -8.56,-8.7 -9.58,-13.8 -2.12,-10.66 19.2,-9.66 17.2,5.92 -0.65,5.11 -3.45,8.29 -7.62,7.88zm8.33 4.89c6.76,-17.29 21.93,0.09 20.82,13.1 -0.03,0.31 -5.57,10.23 -11.4,7.71 -9.91,-4.27 -12.03,-14.13 -9.42,-20.81zm-1.98 87.78c9.54,-0.64 13.29,5.08 13.78,13.71 0.48,14.05 -7.52,20.54 -17.45,21.08 -6.81,0.37 -19.93,-3.4 -16.93,-15.85 2.24,-9.29 13.34,-18.15 20.6,-18.94zm-20.42 31.69c2.36,8.7 -3.01,26.21 -9.02,29.3 -11.71,5.64 -24.86,6.68 -35.41,-3.28 -2.01,-1.96 -4.1,-4.62 -4.79,-7.86 -4.56,-25.09 40.99,-48.48 49.22,-18.16zm-37.91 -11.04c-7.04,3.13 -10.37,9.5 -16.22,14.13 1.47,-9.93 6.96,-14.54 16.22,-14.13zm-24.3 8.98c-12.99,-1.09 -27.97,-3.54 -40.9,-2.41 10.12,-8.42 28.82,-6.11 40.9,2.41zm-47.01 14.05c3.72,-9.48 11.71,-11.09 20.58,-11.82 13.16,-1.07 31.82,1.2 36.88,20.21 6.48,24.31 -27.97,38.27 -47.34,23.22 -2.57,-1.99 -15.5,-17.9 -10.12,-31.61zm-9.82 -11.65c-9.31,-6.42 -30.03,-9.28 -46.53,-2.22 15.14,-15.21 40.35,-14.22 46.53,2.22zm-50.39 12.11c1.49,-5.54 15.44,-10.89 21.59,-12.28 11.39,-2.57 29.26,4.66 31.73,14.71 2.59,10.54 -2.19,21.46 -7.99,28.12 -3.74,4.29 -22.04,8.66 -34.03,-1.72 -8.71,-7.53 -12.94,-22.73 -11.3,-28.83zm-10.94 -20.67c-11.83,-1.37 -32.27,-3.86 -48.51,3.4 13.36,-13.95 33.54,-13.76 48.51,-3.4zm-33.16 4.63c7,-2.85 33.9,-1.48 37.24,8.86 3.06,9.42 1.15,20.07 -5.6,26.94 -11.84,11.36 -22.07,7.4 -34.66,0.92 -3.41,-1.75 -8.62,-4.56 -11.07,-8.15 -6.35,-11.55 1.86,-23.61 14.09,-28.57zm-48.76 13.52c9.5,-5.04 21.64,-0.94 21.85,-0.16 -11.17,0.25 -20.43,2.46 -27.06,8.03 1.1,-2.66 2.56,-6.45 5.21,-7.87zm3.01 9.94c6.64,-4.55 19.38,-1.93 23.75,1.54 10.74,8.55 -7.14,32.43 -23.75,25.35 -5.31,-2.26 -8.14,-5.12 -9,-9.88 -0.92,-5.05 4.18,-13.71 9,-17.01zm-19.95 31.35c17.55,-5.39 24.86,18.15 8.73,26.72 -6.45,3.42 -10.75,1.51 -12.53,-6.68 -1.56,-7.22 -1.16,-18.39 3.8,-20.04zm-53.68 283.13c-0.54,-1.84 -1.12,-3.68 -1.78,-5.52 0.52,1.84 1.14,3.68 1.78,5.52zm-391.6 89.75c4.99,0.19 8.91,3.85 8.24,6.85 -0.85,3.68 -4.71,6.86 -8.08,6.86 -3.95,0 -8.78,-3.96 -8.55,-6 0.33,-2.74 3,-7.91 8.39,-7.71zm-197.72 395.71c-5.07,-0.25 -8.21,-5.15 -8.8,-8.3 -0.84,-4.41 4.22,-6.61 5.33,-6.56 3.6,0.19 9.77,3.76 10.1,7.59 0.26,3.11 -1.72,7.51 -6.63,7.27zm-32.51 -17.28c-4.74,-0.41 -7.04,-6.49 -6.76,-10.03 0.23,-3.08 2.64,-4.83 4.6,-5.25 3.85,-0.85 8.96,4.1 8.99,8.41 0,2.58 -2.29,7.27 -6.83,6.87zm1946.86 -27.72c5.39,0.16 4.04,7.97 4.27,9.57 0.7,4.91 -2.79,8.93 -6.35,9.29 -2.34,0.24 -5.94,-3.11 -6.09,-4.05 -0.78,-4.97 1.29,-15.02 8.17,-14.81zm-946.63 -830.7c3.09,-0.02 4.79,0.97 5.46,5.26 1.78,11.28 -13.17,14.42 -12.72,2.87 0.2,-5.16 3.56,-7.86 7.26,-8.13zm513.53 880.88c-4.78,-0.05 -3.36,-4.82 -3.29,-7.25 0.07,-2.41 1.58,-7.02 4.23,-7.09 3.06,-0.09 4.52,5.01 5.29,7.97 0.44,1.67 -1.63,6.43 -6.23,6.37zm-834.69 -756.47c-1.92,-5.32 3.28,-11.11 7.05,-11.67 2.38,-0.35 5.15,3.45 5.14,5.16 -0.03,5.63 -8.66,16.24 -12.19,6.51zm319.73 -160.61c3.51,-0.4 7.06,3.92 7.23,6.11 0.17,2.18 -3.53,8.43 -6.18,8.56 -2.7,0.14 -3.97,-5.92 -5.18,-8.55 -1.68,-3.62 2.26,-6.85 4.13,-6.12zm-12.12 -17.5c-2.82,-2.57 -4.33,-8.83 -1.86,-11.79 1.61,-1.93 6.48,0.04 6.87,0.62 2.79,4.13 2.77,8.49 0.33,11.13 -1.26,1.37 -3.98,1.28 -5.34,0.04zm-14.28 -31.46c2.43,2.23 3.77,6.48 1.62,9.03 -1.4,1.66 -5.15,2.96 -6.61,-0.55 -1.21,-2.89 -1.7,-7.38 0.41,-9.66 1.1,-1.18 3.39,0.1 4.58,1.18zm-988.65 913.41c-3.04,1.85 -8.8,0.48 -10.03,-3.02 -0.71,-1.98 -0.38,-4.73 1.3,-5.7 3.13,-1.82 8.48,0.4 10.09,3.85 0.71,1.52 0,4.04 -1.36,4.87zm1978.33 -10.05c-4.51,-0.2 -4.03,-6.91 -3.5,-8.29 0.94,-2.52 2.57,-6.66 5.26,-6.48 1.97,0.14 4.61,-0.05 5.56,4.06 0.6,2.58 -2.33,10.93 -7.32,10.71zm5.7 -28.31c-3.4,0.56 -3.92,-4.54 -3.72,-5.66 0.37,-2.03 1.05,-5.38 3.08,-5.66 1.5,-0.2 3.45,-0.75 4.7,2.18 0.79,1.85 -0.3,8.54 -4.06,9.14zm1.34 -26.79c-3.16,1.44 -4.84,-3.36 -4.9,-4.5 -0.1,-2.06 -0.22,-5.49 1.68,-6.3 1.41,-0.6 3.17,-1.66 5.06,0.84 1.18,1.57 1.67,8.36 -1.84,9.96zm-489.14 -479.3c11.72,3.7 68.39,30.64 96.04,57.96 48.26,47.71 68.57,107.43 62.36,177.73 -2.5,28.35 -6.79,56.62 -7.48,85.01 -0.55,22.81 2.81,45.78 4.95,68.63 3.82,40.67 12.92,79.92 28.6,117.23 0.87,2.06 8.22,18.45 11.77,25.09 -0.09,-0.07 -0.2,-0.18 -0.29,-0.25 23,43.31 56.36,78.88 99.24,98.83 31.67,14.73 78.1,12.78 110.81,1.03 81.92,-29.43 119.46,-121.88 83.86,-206.8 -4.85,-11.55 -15.32,-29.06 -25.29,-29.75 -3.67,-0.25 8.87,21.76 16.01,64.97 0.67,4.1 -3.1,22.62 3.3,27.87 -4.9,6.34 -3.93,21.35 -2.93,25.72 -6.32,5.24 -11.66,16.2 -9.16,22.13 -8.51,3.29 -19.54,15.49 -20.68,27.34 -11.55,-3.25 -36.56,7.19 -38.93,20.56 -9.62,-2.31 -24.77,-9.49 -41.53,4.3 -5.71,4.69 -11.87,-0.62 -16.8,-6.5 -7.16,-8.55 -16.56,-12.29 -27.58,-12.32 -8.98,-0.02 -22.74,7 -24.74,-5.01 -5.7,-34.25 -32,-36.04 -39.26,-44.19 -4.27,-4.8 6.49,-46.59 -23.74,-62.36 -7.55,-3.92 15.98,-44.86 -3.17,-70.05 -12.97,-17.05 13.89,-45.67 5.7,-69.19 -5.78,-16.6 -1.24,-33.76 6.33,-48.82 10.2,-20.29 -10.13,-49.5 1.9,-78.45 9.16,-22.03 10.45,-59.95 -11.29,-70.97 -18.71,-9.5 -15.98,-19.99 -17.66,-33.94 -0.82,-6.83 10.59,-56.1 -43.31,-61.86 -14.46,-1.55 -20.53,-8.21 -29.84,-22.33 -3.96,-5.99 -19.31,-20.55 -36.13,-22.79 -16.19,-2.15 -33.09,2.75 -48.2,-4.82 -1.88,-0.93 -16.98,-12.3 -35.25,-5.98 -5.05,1.74 -10.61,0 -15.92,0 -3.54,0 -18.04,-4.78 -29.48,-1.17 -24.44,7.69 -53.54,8.62 -75.23,19.52 25.88,-2.32 76.69,8.48 93.02,13.63zm494.8 465.45c3.55,3.55 3.65,7.51 2.75,12.05 -1.79,8.95 -10.24,9.26 -14.05,4.44 -6.27,-7.92 4.76,-23.05 11.3,-16.49zm-6.8 44.88c-2.17,-0.19 -5.42,-4.52 -5.54,-7.53 -0.32,-7.54 8.7,-17.82 13.54,-10.61 5.97,8.93 -0.09,18.83 -8,18.14zm7.03 5.96c2.47,3.94 1.84,11.4 -0.37,16.31 -6.03,13.36 -14.67,7.69 -17.9,3.76 -7.76,-9.41 11.89,-30.27 18.27,-20.07zm-13.52 31.21c1.14,9.97 1.81,14.07 -3.65,20.17 -11.75,13.09 -22.15,4.49 -22.47,-6.29 -0.45,-15.23 24.35,-29.36 26.12,-13.88zm-60.82 30.58c11.75,-14.91 34.69,-12.21 37.8,1.27 2.73,11.82 -6.08,17.51 -13.88,22.73 -6.8,4.55 -13.82,6.79 -20.8,-0.07 -6.62,-6.52 -10.06,-15.12 -3.12,-23.93zm-51.77 20.81c1.2,-3.14 6.1,-9.05 9.14,-11.57 10.63,-8.8 31.26,-3.71 37.2,5.96 7.76,12.64 6.81,26.07 -6.33,30.82 -7.83,2.82 -16.71,4.05 -24.92,3.36 -13.83,-1.17 -20.49,-14.47 -15.09,-28.57zm-266.55 -543.4c8.58,6.62 14.99,10.16 25.06,12.73 -10.27,1.83 -18.03,-2.12 -25.06,-12.73zm33.45 28.95c7.69,14.33 15.67,29.04 31.13,45.95 -16.79,-12.44 -26.68,-27.17 -31.13,-45.95zm35.24 213.39c-2.81,24.32 -5.17,47.78 -5.13,72.14 -7.06,-23.41 -3.3,-47.36 5.13,-72.14zm12.02 -108.79c-8.83,-8.24 -12.01,-30.69 -5.29,-44.96 -1.22,17.11 0.73,32.65 5.29,44.96zm-0.21 20.73c-5.75,21.98 -12.32,43.87 -7.39,67.41 -9.31,-17.11 -5.65,-50.18 7.39,-67.41zm-12.68 184.08c0.85,24.92 3.53,49.35 16.83,72.12 -15.44,-9.09 -23.25,-51.7 -16.83,-72.12zm24.96 126.75c-7.48,-17.41 -5.49,-38.83 -5.06,-38.88 -1.91,8.43 12.87,53.17 19.3,61.45 -5.87,-5.33 -11.28,-15.69 -14.24,-22.57zm30.35 35.69c4.8,7.04 9.16,14.52 14.55,21 5.11,6.14 9.24,10.12 15.7,18.1 -15.48,-7.89 -25.92,-20.53 -30.25,-39.1zm72.75 71.67c-8.72,-3.75 -16.23,-17.49 -15.82,-18 8.73,8.65 18.16,15.84 29.81,19.32 -1.22,0.39 -9.52,0.61 -13.99,-1.32zm27.34 -54.94c16.07,-0.08 30.48,9.81 34.25,26.23 3.6,15.66 -5.7,28.04 -21.94,28.32 -6.6,0.12 -13.34,-0.91 -19.82,-2.4 -17.21,-3.95 -23.94,-13.56 -22.33,-30.82 1.31,-14.21 14.58,-21.25 29.84,-21.33zm-27.49 -9.92c0.04,3.46 0.13,6.18 -0.05,8.84 -1.39,20.27 -18.96,31.75 -32.98,20.81 -7.73,-6.02 -14.72,-13.76 -20.5,-21.99 -9.43,-13.4 -2.32,-24.51 7.61,-37.58 7.08,-9.32 37.97,1.41 45.92,29.92zm-52.77 -89.82c7.64,5.37 16.64,32.07 7.91,45.05 -8.08,11.99 -16.23,22.14 -27,20.78 -12.95,-1.63 -17.56,-12.26 -20.89,-23.99 -1.48,-5.2 -3.98,-19.9 -3.93,-22.1 0.39,-16.42 5.63,-23.79 20.23,-27.56 2.59,-0.66 12.26,-0.19 23.68,7.82zm-17.93 -21.79c-11.99,14.52 -29.48,13.44 -37.62,-3.93 -5.84,-12.41 -8.03,-23.93 -9.19,-37.95 -0.56,-6.74 3.62,-19.36 8.69,-24.14 12.38,-11.66 32.34,-10.82 41.54,4.23 14.35,23.51 1.83,55.44 -3.42,61.79zm-18.15 -79.22c-13.05,1.75 -25.86,2.27 -29.65,-10.97 -5.58,-19.49 -2.14,-38.44 7.11,-55.74 2.42,-4.52 8,-8.31 12.83,-9.82 18.2,-5.71 34.24,4.75 38.51,25.83 4.49,22.13 -13.09,48.61 -28.8,50.7zm32.89 -102.88c-4.8,10.33 -14.33,16.55 -25.25,20.62 -13.64,5.09 -27.64,-3.75 -30.48,-19.06 -3.02,-16.29 0.22,-31.97 6.36,-46.97 4.35,-10.64 12.34,-13.04 22.41,-14.95 24.11,-4.57 37.14,38.44 26.96,60.36zm-7.68 -147.84c13.41,5.79 20.3,31.54 17.14,49.37 -1.57,8.85 -6.3,16.62 -12.39,23.73 -11.55,13.49 -29.12,14.03 -38.23,-1.28 -6.76,-11.38 -9.79,-25.65 -13.13,-39.02 -3.18,-12.75 0.12,-24.39 10.87,-31.85 11.53,-8 22.27,-6.78 35.74,-0.95zm-35.51 -85.85c21.21,12.85 16.75,59.8 9.26,73.03 -8.36,14.79 -23.71,18.68 -36.99,9.14 -18.14,-13.02 -27.74,-32.51 -31.96,-54.98 -0.97,-5.15 0.96,-11.88 3.49,-16.7 8.11,-15.47 32.72,-24.71 56.2,-10.49zm-123.93 -34.25c3.92,-12.75 12.63,-19.67 24.78,-21.16 3.99,-0.48 19.16,3.62 26.97,7.62 11.85,6.07 17.22,18.12 19.2,32.85 2.18,16.13 -6.91,28.94 -21.86,29.24 -17.03,0.35 -32.03,-6.7 -44.64,-18.49 -8.6,-8.03 -7.75,-19.34 -4.45,-30.06zm-44.33 -31.7c14.45,-4.38 29.47,6.29 30.81,8.68 2.23,4 4.31,7.9 5.75,12.07 2.4,7.01 0.31,13.68 -6.04,17.81 -9.36,6.06 -32.07,2.47 -39.15,-6.41 -1.82,-2.29 -2.98,-5.61 -3.5,-8.64 -1.99,-11.52 2.51,-20.59 12.13,-23.51zm-45.75 0.69c6.22,-1.47 17.65,0.35 21.31,3.07 3.7,2.75 7.41,11.34 5.07,15.94 -2.14,4.2 -9.33,6.13 -13.4,6.68 -9.42,1.28 -19.47,-6.51 -20.42,-9.08 -3.43,-9.28 2.38,-15.41 7.44,-16.61zm110.72 33.33c-0.16,-9.28 5.99,-16.09 14.65,-16.23 9.45,-0.15 19.11,10.09 19.48,20.65 0.29,7.93 -4.25,13.32 -11.24,13.34 -10.91,0.04 -22.75,-9.15 -22.89,-17.76zm-135.07 416.38c8.76,0.04 16.32,6.94 15.86,15.27 -0.38,6.9 -3.95,11.74 -10.73,12.29 -7,0.57 -18.88,-10.26 -19.11,-16.97 -0.22,-6.07 5.78,-10.62 13.98,-10.59zm-630.34 -626.61c10.46,-0.14 16.02,3.87 15.47,10.99 -0.54,7.15 -4.88,11.14 -11.35,11.62 -6.14,0.44 -14.77,-7.66 -14.58,-13.66 0.26,-8.1 6.16,-8.44 10.46,-8.95zm-507.95 -40.81c-3.33,-8.55 8.54,-17.9 14.52,-16.6 2.92,0.64 6.76,5.31 7.19,8.61 1.1,8.37 -5.13,17.27 -10.68,15.86 -4.02,-1.03 -9.29,-3.44 -11.03,-7.87zm1612.41 819.37c6.04,-0.55 9.38,5.96 9.35,9.68 -0.04,5.4 -6.24,11.45 -11.23,10.58 -0.72,-0.12 -6.65,-2.12 -6.49,-7.26 0.13,-4.3 2.1,-12.43 8.37,-13zm-1344.04 -602.17c-0.07,-12.32 4.48,-20.76 11.99,-19.91 7.31,0.81 12.28,7.8 12.4,15.91 0.14,9.26 -6.19,17.84 -13.56,17.81 -9.2,-0.02 -9.98,-8.31 -10.83,-13.81zm103.64 253.07c0.65,-5.97 6.4,-11.98 12.82,-12.46 8.27,-0.62 15.25,9.59 14.84,19.4 -0.25,5.92 -3.52,11.88 -9.94,12.44 -7.12,0.61 -17.81,-10.6 -17.72,-19.38zm-95.78 -181.56c-0.62,-8.08 3.14,-12.56 10.27,-13.18 6.35,-0.55 12.86,7.36 13.03,14.98 0.19,8.33 -6.72,17.49 -13.04,17.27 -6.28,-0.22 -10.2,-7.49 -10.26,-19.07zm80.62 143.58c0.06,5.15 -2.96,12.15 -10.49,13.32 -6.84,1.06 -14.82,-10.5 -15.08,-21.46 -0.18,-8.18 6.35,-10.78 12.63,-11.23 7.34,-0.52 13.06,7.23 12.94,19.37zm-625.67 5.56c1.56,3.25 4.14,-1.69 4.71,-2.73 8.14,-14.96 15.83,-30.24 24.49,-44.84 8.3,-13.95 19.07,-25.21 33.35,-32.42 35.16,-17.74 71.54,-31.43 109.14,-41.87 36.83,-10.24 65.29,-33.17 84.38,-69.37 14.31,-27.15 21.49,-56.8 27.28,-86.93 12.84,-66.67 11.56,-116.69 53.77,-160.74 23.7,-24.75 52.99,-35.03 85.35,-23.71 32.13,11.24 50.65,37.96 58.09,72.33 6.13,28.3 9.99,57.34 12.74,86.28 4.09,43.09 5.96,86.41 9.42,129.59 5.35,66.66 23.17,128.68 58.1,184.74 17.33,27.81 36.92,52.74 62.95,71.1 29,20.45 59.55,27.7 92.05,10.67 1.8,-0.93 10.61,-6.34 12.03,-7.53 -21.92,7.24 -50.46,-15.02 -48.68,-28.26 5.76,-42.75 -28.02,-52.03 -40.6,-51.38 -4.15,0.21 1.9,-40.59 -33.34,-45.14 -10.75,-1.38 -10.94,-13.11 -10.7,-24.87 0.11,-5.58 -0.31,-28.08 -17.51,-37.33 -13.01,-6.99 -7.69,-16.24 -1.73,-30.77 2.38,-5.77 1.68,-22.33 -4.62,-32.49 -1.55,-2.5 -6.22,-11.51 -7.23,-14.29 -1.62,-4.45 -3.93,-8.97 -4.16,-13.56 -0.19,-3.86 10.2,-16.09 10.67,-35.87 23.56,42.09 56.32,79.04 90.46,111.52 20.94,19.93 42.25,39.47 62.39,60.32 26.4,27.33 44.7,75.07 32.37,109.8 17.08,-34.48 10.28,-80.16 -10.21,-109.58 -19.82,-28.43 -46.52,-48.68 -72.05,-70.31 -27.52,-23.31 -54.47,-47.32 -75.71,-77.73 -20.34,-29.13 -32.41,-61.52 -34.9,-98.41 -2.56,-37.88 5.04,-107.51 58.7,-139.72 -27.07,11.14 -49.19,50.1 -51.37,52.65 4.38,-17.57 -24.29,-37.74 -39.17,-39.46 -0.95,-15.07 9.65,-79.64 -49.87,-73.64 -10.04,1.02 -13.29,-9.79 -16.7,-18.67 -2.83,-7.35 -6.06,-26.23 -42.97,-22.44 -11.72,1.2 -20.53,15.33 -33.24,9.76 -30.84,-13.53 -45.75,10.61 -50.81,19.7 -2.26,4.04 -41.49,-11.31 -46.1,24.43 -0.72,5.58 -2.54,10.44 -5.25,14.15 -2.76,3.79 -13.56,13.05 -21.15,24.11 -4.12,5.99 -2.54,27.51 -1.75,30.99 1.92,8.43 -43.04,26.04 -12.49,69.72 5,7.16 -28.1,20.11 -13.94,48.81 6.34,12.85 4.53,14.39 -7.95,25.48 -4.27,3.79 -17.41,20.52 -4.4,42.53 4.63,7.82 -19.57,18.28 -18.83,34.59 1.1,24.84 -9.63,36.78 -25.53,45.36 -9.17,4.94 -18.81,9.08 -28.56,12.5 -23.84,8.32 -48.4,14.54 -71.72,24.26 -43.87,18.27 -69.04,54.54 -79.07,103.6 -0.97,4.8 -1.86,11.43 -0.13,15.07zm406.76 -488.39c8.3,5.16 25.4,12.35 34.72,14.61 -11.08,4.29 -28.68,-3.13 -34.72,-14.61zm45.42 23.82c17.02,24.33 27.76,32.47 42.51,49.71 -19.85,-12.36 -33.76,-27.65 -42.51,-49.71zm47.82 59.4c2.88,20.31 5.62,39.66 8.2,57.8 -8.17,-8.52 -12.63,-35.8 -8.2,-57.8zm13.45 76.78c-2.5,19.17 -2.81,38.72 0,59.07 -8.89,-19.35 -8.46,-39.09 0,-59.07zm0.43 133.48c-7.85,-9.1 -8.83,-35.34 0,-54.42 -1.51,18.39 -1.57,36.36 0,54.42zm24.75 -97.48c1.76,4.29 3.73,8.87 8.45,9.56 0.9,0.13 3.53,0.01 4.35,-0.42 1.48,5.67 3.48,10.85 -3.99,14.34 -9.38,4.4 -18.72,4.1 -24.34,-2.47 -10.05,-11.75 -9.45,-47.27 2.48,-56.29 5.66,-4.27 15.87,-3.61 23.4,-4.66 0.65,-0.09 2.49,14.74 -0.32,15.59 -13.14,3.93 -13.93,14.79 -10.03,24.35zm-11.03 213.25c7.26,16.38 18.55,32.13 29.77,51.87 -15.5,-15.46 -28.33,-30.44 -29.77,-51.87zm-12.33 -86.32c2.98,18.44 7,36.73 12.98,55.04 -12.22,-15.86 -15,-34.61 -12.98,-55.04zm55.16 159.01c7.05,15.93 16.64,31.84 27.25,44 -12.06,-1.02 -27.21,-28.64 -27.25,-44zm38.4 58.32c11.79,9.03 24.11,18.46 35.52,27.2 -13.84,-0.88 -31.71,-14.42 -35.52,-27.2zm66.78 7.3c-2.32,18.98 -18.49,19.9 -33.91,7.83 -4.38,-3.42 -8.14,-7.75 -12.29,-11.51 -8.69,-7.89 -9.66,-18.63 -4.37,-29.24 6.53,-13.1 57.58,-24.28 50.57,32.92zm-69.57 -92.91c42.35,4.58 20.39,53.2 14.84,58.91 -11.78,12.12 -22.04,4.22 -31.21,-10.77 -2.33,-3.82 -4.61,-7.74 -6.4,-11.87 -10.14,-23.55 0.21,-38.71 22.77,-36.27zm-31.1 -63.72c19.65,11.64 16.97,36.34 12.92,45.79 -3.41,7.97 -7.95,15.03 -16.95,15.82 -9.32,0.83 -16.48,-3.57 -21.06,-12.31 -3.56,-6.81 -7.36,-13.64 -9.78,-20.95 -3.38,-10.22 -2.32,-16.98 6.49,-24.49 8.78,-7.48 18.84,-9.5 28.38,-3.86zm-11.88 -68.55c13.03,13.42 5.71,37.51 1.66,44.17 -4.85,7.99 -12.15,12.86 -21.62,11.05 -9.12,-1.75 -14.19,-8.57 -16.19,-17.73 -1.87,-8.55 -3.52,-17.33 -3.79,-26.07 -0.32,-10.25 5.33,-17.04 14.78,-20.85 9.54,-3.83 23.72,7.94 25.16,9.43zm4.99 -66.34c-2.61,30.97 -17.12,36.98 -23.16,40.09 -12.73,6.57 -26.25,-1.26 -27.7,-16.36 -0.95,-9.93 0.91,-17.47 2.19,-27.45 1.41,-11.05 7.32,-17.75 17.45,-19.4 9.8,-1.58 20.47,1.14 24.96,10.5 2.66,5.54 3.34,7.33 6.26,12.62zm-35.22 -189.57c4.96,-1.1 37.67,9.09 34.15,35.06 -1.35,9.91 -5.8,19.14 -9.48,28.35 -3.93,9.81 -15.54,17 -24.37,15.79 -10.38,-1.42 -16.91,-8.32 -20.06,-18.78 -2.14,-7.13 -4.15,-14.43 -5.15,-21.82 -3,-22.26 7.15,-34.65 24.91,-38.6zm-53.02 -76.73c41.94,-11.99 50.01,38.88 43.11,54.53 -7.47,16.92 -22.25,23.71 -35.39,11.64 -8.57,-7.87 -16.05,-17.95 -21.72,-28.48 -8.49,-15.7 4.99,-35.12 14,-37.69zm-64.27 -39.57c33.39,-15.41 43.54,15.24 46.08,23.92 4.89,16.68 -5.28,30.56 -21.19,27.86 -9.18,-1.56 -18.24,-6.69 -26.4,-11.96 -11.62,-7.51 -13.59,-32.85 1.51,-39.82zm-129.27 183.12c3.42,-8.92 6.27,-20.73 8.82,-32.73 1.1,12.68 1.02,25.18 -8.82,32.73zm9.97 -49.78c7.22,-10.52 13.87,-21.15 18.35,-36.83 3.03,14.83 -6.14,32.83 -18.35,36.83zm62.76 -76.75c10.47,-1.1 24.73,-2.46 35.21,-5.84 -5.79,10.36 -24.6,13.54 -35.21,5.84zm25.35 -50.77c2.43,1.12 4.76,2.84 6.71,5.03 8.36,9.38 7.52,22.61 -3.05,27.96 -8,4.04 -17.31,6.18 -26.17,6.75 -8.47,0.54 -15.89,-4.98 -16.6,-14.77 -0.55,-7.91 8.24,-39.18 39.11,-24.97zm-37.26 54.73c-4.37,13.45 -14.65,22.36 -29.69,23.73 11.54,-5.66 19.95,-14.74 29.69,-23.73zm-52.66 -13.61c4.1,-14.83 13.62,-22.51 25.62,-21.56 1.16,0.1 2.19,0.28 3.33,0.54 18.42,4.65 20.65,21.93 12.16,32.03 -3.04,3.61 -6.7,6.67 -10.31,9.64 -12.08,9.96 -25.25,6.57 -31.26,-8.43 -1.34,-3.36 -0.67,-7.84 0.46,-12.22zm-6.17 25.52c11.64,-1.27 22.18,5.89 19.65,18.26 -1.71,8.42 -4.71,16.91 -8.77,24.33 -4.38,8.03 -11.27,12.27 -20.81,8.52 -9.31,-3.67 -14.58,-10.15 -14.95,-20.79 -0.14,-3.77 6.05,-28.27 24.88,-30.32zm-40.78 103.4c-10.98,-23.76 2.89,-43.96 13.87,-47.05 11.46,-3.22 21.84,7.16 22.48,25.53 0.59,16.31 -7.44,32.37 -20.49,29.82 -6.4,-1.24 -13.75,-3.75 -15.86,-8.3zm10.71 14.96c17.51,0.36 19.01,13.22 19.49,32.01 0.35,13.76 -4.88,20.01 -14.93,22.48 -8.64,2.13 -17.35,-0.36 -21.85,-9.98 -12.57,-26.81 11.93,-44.63 17.29,-44.51zm0 68.68c9.42,9.6 6.63,19.61 3.48,30.4 -2.63,9 -6.34,16.8 -17.17,18.91 -9.13,1.79 -14.53,-2.5 -18.13,-7.69 -5.76,-8.97 -3.68,-21.45 0.47,-30.73 2.69,-6.03 6.93,-9.43 11.9,-11.86 6.01,-2.95 13.94,-4.25 19.45,0.97zm-17.09 62.17c3.86,8.01 -2.45,27.26 -11.91,31.31 -4.05,1.74 -10.37,0.7 -14.34,-1.68 -3.52,-2.11 -5.15,-6.6 -5.57,-12.66 -1.64,-23.12 27.7,-25.5 31.82,-16.97zm923.6 520.34c0.19,-10.33 7.38,-18.35 16.44,-18.34 7.6,0.01 12.53,5.29 12.51,13.41 -0.02,7.34 -11.31,17.1 -19.7,16.7 -6.77,-0.33 -9.47,-4.8 -9.25,-11.77zm157.59 -68.38c-10.07,0.13 -15.32,-4.05 -15.28,-12.17 0.04,-9.85 9.96,-19.77 20.11,-20.13 9.05,-0.32 16.56,7.41 16.46,16.92 -0.12,10.35 -6.83,15.2 -21.29,15.38zm-206.41 60.48c8.12,0.09 15.62,7.61 15.38,15.76 -0.22,7.47 -3.26,12.47 -10.88,12.57 -8.83,0.11 -20.6,-8.88 -20.7,-15.73 -0.09,-6.13 8.34,-12.69 16.2,-12.6zm-39.31 -14.76c-2.16,1.76 -5.58,6.18 -9.86,7.63 -4.8,1.63 -14.29,-10.14 -13.06,-16.76 0.67,-3.61 4.78,-8.36 8.04,-9.15 7.09,-1.71 14.79,6.74 14.88,18.28zm-491.54 -354.44c-0.16,7.83 -6.84,15.42 -10.8,16.58 -3.25,0.94 -9.31,-5.04 -12,-8.87 -3.7,-5.27 -5.44,-14.37 0.21,-20.13 2.98,-3.06 10.24,-4.87 13.55,-3.02 4.46,2.52 9.2,7.63 9.04,15.44zm149.03 -321.67c-1.31,13.24 -11.73,15.32 -19.71,9.79 -7.97,-5.5 -11.11,-12.58 -1.03,-17.84 4.79,-2.5 12.75,-4.67 17.47,-1.1 2.57,2.19 3.3,5.36 3.27,9.15zm1039.83 780.94c8.14,0.29 18,10.1 17.81,18.1 -0.22,8.99 -6.29,10.35 -12.69,10.19 -11.63,-0.27 -20.19,-5.1 -20.2,-13.14 -0.01,-8.36 6.4,-15.48 15.08,-15.15zm-1639.9 -217.32c0.23,-11.25 4.22,-17.74 10.55,-17.23 6.96,0.57 13.49,10.32 13.13,19.58 -0.33,8.24 -5.26,13.65 -12.45,13.72 -8.08,0.08 -11.47,-4.78 -11.23,-16.07zm-1.41 -70.54c0.12,-11.51 5.24,-20.06 12.04,-20.06 6.58,0 12.73,8.77 12.39,17.69 -0.33,8.49 -6.32,15.4 -13.45,15.5 -7.43,0.08 -11.06,-4.24 -10.98,-13.13z"/>
 </g>
</svg>
